<?xml version="1.0" encoding="utf-8"?>
<svg width="44px" height="28px" viewBox="0 0 44 28" version="1.1" xmlns:xlink="http://www.w3.org/1999/xlink" xmlns="http://www.w3.org/2000/svg">
  <path d="M37.8195 17.8137C37.1974 17.0626 36.59 16.3034 35.9763 15.5478L35.8647 15.5861C35.9283 16.0994 35.9855 16.6144 36.0574 17.1267C36.3082 19.0557 37.1785 20.8601 38.5457 22.2858C38.5832 22.3253 38.6204 22.3665 38.6579 22.4081C38.9171 22.6957 39.1916 23.0003 39.694 22.8329C39.7229 22.8232 39.7635 22.8463 39.8039 22.8693C39.8227 22.88 39.8414 22.8906 39.859 22.898C40.3161 23.0913 40.4866 23.0254 40.6304 22.5656C40.7021 22.354 40.7443 22.134 40.7557 21.9116C40.7627 21.6026 40.7734 21.2932 40.784 20.9838C40.8138 20.1209 40.8435 19.2574 40.7953 18.3982C40.5612 14.2335 40.2783 10.0724 40.0018 5.91034C39.9825 5.61274 40.0534 5.47373 40.3299 5.32939C41.5731 4.68567 42.1591 3.27204 41.7197 1.97641C41.292 0.694046 39.9943 -0.12384 38.6081 0.0153841C37.222 0.154608 36.1259 1.21294 35.9799 2.55291C35.8374 3.90535 36.7083 5.16511 38.0554 5.55482C38.3577 5.64036 38.4701 5.75708 38.4987 6.0538C38.6867 8.01854 38.9309 9.97971 39.083 11.9471C39.2268 13.8103 39.2885 15.677 39.3659 17.5482C39.3694 17.8599 39.3266 18.1705 39.2387 18.4704C39.1429 18.834 38.9245 18.9035 38.636 18.6558C38.3403 18.3973 38.0672 18.1157 37.8195 17.8137ZM15.6674 4.31244C15.946 4.27566 16.2294 4.32385 16.4792 4.4505C17.4534 4.99049 18.4113 5.55799 19.353 6.153C19.605 6.31315 19.7978 6.36336 20.0835 6.27454C22.9179 5.39464 25.8156 4.85009 28.7945 4.81108C31.0483 4.78111 33.2692 4.98701 35.3587 5.91984L35.6982 6.07756L36.4435 6.44055L32.7796 10.2891L37.8742 11.4746L37.2519 12.4821C37.1485 12.6425 37.042 12.7982 36.9277 12.9479C35.6219 14.6545 33.9151 15.9073 32.0616 16.974C28.9215 18.7767 25.5362 19.9367 21.972 20.6049C21.4148 20.7098 20.8529 20.7921 20.2995 20.9132C20.1699 20.9424 20.0424 21.0683 19.9558 21.1808C19.5348 21.727 19.1996 22.3564 18.7031 22.8229C17.0146 24.4109 14.8955 25.1873 12.6118 25.7514L13.2214 24.6416C13.7569 23.6595 14.2217 22.6685 14.1846 21.508L8.99536 21.1694C8.64821 22.6984 8.07235 24.1598 6.53586 25.0178C5.87813 25.3885 5.10887 25.5204 4.36237 25.3902C5.08759 19.9171 3.69949 15.1187 1.77026e-05 10.9207C0.823192 10.1601 1.85069 9.85393 3.02232 10.0548C4.46478 10.3012 5.54315 11.1421 6.47883 12.1911L6.67794 12.4247L7.03151 12.8609L12.3543 9.40243C11.7593 8.98902 11.1052 8.65142 10.4292 8.32931L9.05891 7.68785C8.82931 7.57842 8.60002 7.46624 8.37241 7.34907L9.8853 6.70559C10.1308 6.59906 10.3735 6.49098 10.6141 6.37851C11.8129 5.81847 12.9876 5.20746 14.1965 4.67213C14.6508 4.47062 15.1682 4.38256 15.6674 4.31244ZM27.2547 7.30461C27.6251 6.63888 28.25 6.14574 28.9912 5.93434C30.1223 5.60653 31.3428 5.98154 32.0828 6.88425C32.8228 7.78697 32.9363 9.0393 32.3704 10.0565C31.8044 11.0737 30.6707 11.6551 29.4985 11.5291C28.3263 11.4032 27.3469 10.5949 27.0177 9.48153C26.799 8.75379 26.8843 7.97035 27.2547 7.30461ZM29.3891 6.15821C30.0495 5.9561 30.7518 6.31719 30.9597 6.96579C31.1625 7.61948 30.7879 8.31101 30.1231 8.51036C29.4583 8.70971 28.755 8.34139 28.5523 7.6877C28.3577 7.03851 28.731 6.35633 29.3891 6.15821Z" transform="translate(1.0126953 1.0124512)" id="wheel-slice-black-bait" fill="#575D6A" fill-rule="evenodd" stroke="none" />
</svg>
